<svg xmlns="http://www.w3.org/2000/svg" xmlns:xlink="http://www.w3.org/1999/xlink" zoomAndPan="magnify" preserveAspectRatio="xMidYMid meet" version="1.0" viewBox="18.33 145.39 304.75 123.23"><defs><g/><clipPath id="cf4495dd96"><path d="M 39.699219 145.386719 L 62.308594 145.386719 L 62.308594 168 L 39.699219 168 Z M 39.699219 145.386719 " clip-rule="nonzero"/></clipPath><clipPath id="8ecbfee053"><path d="M 51.003906 145.386719 C 49.503906 145.386719 48.0625 145.675781 46.679688 146.25 C 45.292969 146.820312 44.070312 147.640625 43.011719 148.699219 C 41.949219 149.757812 41.132812 150.980469 40.558594 152.367188 C 39.984375 153.753906 39.699219 155.195312 39.699219 156.695312 C 39.699219 158.191406 39.984375 159.636719 40.558594 161.019531 C 41.132812 162.40625 41.949219 163.628906 43.011719 164.6875 C 44.070312 165.746094 45.292969 166.566406 46.679688 167.140625 C 48.0625 167.710938 49.503906 168 51.003906 168 C 52.503906 168 53.945312 167.710938 55.332031 167.140625 C 56.714844 166.566406 57.9375 165.746094 59 164.6875 C 60.058594 163.628906 60.875 162.40625 61.449219 161.019531 C 62.023438 159.636719 62.308594 158.191406 62.308594 156.695312 C 62.308594 155.195312 62.023438 153.753906 61.449219 152.367188 C 60.875 150.980469 60.058594 149.757812 59 148.699219 C 57.9375 147.640625 56.714844 146.820312 55.332031 146.25 C 53.945312 145.675781 52.503906 145.386719 51.003906 145.386719 Z M 51.003906 145.386719 " clip-rule="nonzero"/></clipPath><clipPath id="a28cf7bc86"><path d="M 0.699219 0.386719 L 23.308594 0.386719 L 23.308594 23 L 0.699219 23 Z M 0.699219 0.386719 " clip-rule="nonzero"/></clipPath><clipPath id="5d6ad8823e"><path d="M 12.003906 0.386719 C 10.503906 0.386719 9.0625 0.675781 7.679688 1.25 C 6.292969 1.820312 5.070312 2.640625 4.011719 3.699219 C 2.949219 4.757812 2.132812 5.980469 1.558594 7.367188 C 0.984375 8.753906 0.699219 10.195312 0.699219 11.695312 C 0.699219 13.191406 0.984375 14.636719 1.558594 16.019531 C 2.132812 17.40625 2.949219 18.628906 4.011719 19.6875 C 5.070312 20.746094 6.292969 21.566406 7.679688 22.140625 C 9.0625 22.710938 10.503906 23 12.003906 23 C 13.503906 23 14.945312 22.710938 16.332031 22.140625 C 17.714844 21.566406 18.9375 20.746094 20 19.6875 C 21.058594 18.628906 21.875 17.40625 22.449219 16.019531 C 23.023438 14.636719 23.308594 13.191406 23.308594 11.695312 C 23.308594 10.195312 23.023438 8.753906 22.449219 7.367188 C 21.875 5.980469 21.058594 4.757812 20 3.699219 C 18.9375 2.640625 17.714844 1.820312 16.332031 1.25 C 14.945312 0.675781 13.503906 0.386719 12.003906 0.386719 Z M 12.003906 0.386719 " clip-rule="nonzero"/></clipPath><clipPath id="1fd579dee8"><rect x="0" width="24" y="0" height="23"/></clipPath><clipPath id="0c4635fee6"><path d="M 75.878906 145.386719 L 98.492188 145.386719 L 98.492188 168 L 75.878906 168 Z M 75.878906 145.386719 " clip-rule="nonzero"/></clipPath><clipPath id="db6b743fd9"><path d="M 87.183594 145.386719 C 85.683594 145.386719 84.242188 145.675781 82.859375 146.25 C 81.472656 146.820312 80.25 147.640625 79.191406 148.699219 C 78.128906 149.757812 77.3125 150.980469 76.738281 152.367188 C 76.164062 153.753906 75.878906 155.195312 75.878906 156.695312 C 75.878906 158.191406 76.164062 159.636719 76.738281 161.019531 C 77.3125 162.40625 78.128906 163.628906 79.191406 164.6875 C 80.25 165.75 81.472656 166.566406 82.859375 167.140625 C 84.242188 167.710938 85.683594 168 87.183594 168 C 88.683594 168 90.125 167.710938 91.511719 167.140625 C 92.894531 166.566406 94.117188 165.75 95.179688 164.6875 C 96.238281 163.628906 97.054688 162.40625 97.628906 161.019531 C 98.203125 159.636719 98.492188 158.191406 98.492188 156.695312 C 98.492188 155.195312 98.203125 153.753906 97.628906 152.367188 C 97.054688 150.980469 96.238281 149.757812 95.179688 148.699219 C 94.117188 147.640625 92.894531 146.820312 91.511719 146.25 C 90.125 145.675781 88.683594 145.386719 87.183594 145.386719 Z M 87.183594 145.386719 " clip-rule="nonzero"/></clipPath><clipPath id="af3a40ecdd"><path d="M 0.878906 0.386719 L 23.492188 0.386719 L 23.492188 23 L 0.878906 23 Z M 0.878906 0.386719 " clip-rule="nonzero"/></clipPath><clipPath id="b00605a93e"><path d="M 12.183594 0.386719 C 10.683594 0.386719 9.242188 0.675781 7.859375 1.25 C 6.472656 1.820312 5.25 2.640625 4.191406 3.699219 C 3.128906 4.757812 2.3125 5.980469 1.738281 7.367188 C 1.164062 8.753906 0.878906 10.195312 0.878906 11.695312 C 0.878906 13.191406 1.164062 14.636719 1.738281 16.019531 C 2.3125 17.40625 3.128906 18.628906 4.191406 19.6875 C 5.25 20.75 6.472656 21.566406 7.859375 22.140625 C 9.242188 22.710938 10.683594 23 12.183594 23 C 13.683594 23 15.125 22.710938 16.511719 22.140625 C 17.894531 21.566406 19.117188 20.75 20.179688 19.6875 C 21.238281 18.628906 22.054688 17.40625 22.628906 16.019531 C 23.203125 14.636719 23.492188 13.191406 23.492188 11.695312 C 23.492188 10.195312 23.203125 8.753906 22.628906 7.367188 C 22.054688 5.980469 21.238281 4.757812 20.179688 3.699219 C 19.117188 2.640625 17.894531 1.820312 16.511719 1.25 C 15.125 0.675781 13.683594 0.386719 12.183594 0.386719 Z M 12.183594 0.386719 " clip-rule="nonzero"/></clipPath><clipPath id="3811b9576c"><rect x="0" width="24" y="0" height="23"/></clipPath><clipPath id="a121ba3029"><path d="M 112.058594 145.386719 L 134.671875 145.386719 L 134.671875 168 L 112.058594 168 Z M 112.058594 145.386719 " clip-rule="nonzero"/></clipPath><clipPath id="be2a4ec43e"><path d="M 123.363281 145.386719 C 121.867188 145.386719 120.421875 145.675781 119.039062 146.25 C 117.652344 146.820312 116.429688 147.640625 115.371094 148.699219 C 114.308594 149.757812 113.492188 150.980469 112.917969 152.367188 C 112.347656 153.753906 112.058594 155.195312 112.058594 156.695312 C 112.058594 158.191406 112.347656 159.636719 112.917969 161.019531 C 113.492188 162.40625 114.308594 163.628906 115.371094 164.6875 C 116.429688 165.746094 117.652344 166.566406 119.039062 167.140625 C 120.421875 167.710938 121.867188 168 123.363281 168 C 124.863281 168 126.304688 167.710938 127.691406 167.140625 C 129.078125 166.566406 130.300781 165.746094 131.359375 164.6875 C 132.417969 163.628906 133.234375 162.40625 133.808594 161.019531 C 134.382812 159.636719 134.671875 158.191406 134.671875 156.695312 C 134.671875 155.195312 134.382812 153.753906 133.808594 152.367188 C 133.234375 150.980469 132.417969 149.757812 131.359375 148.699219 C 130.300781 147.640625 129.078125 146.820312 127.691406 146.25 C 126.304688 145.675781 124.863281 145.386719 123.363281 145.386719 Z M 123.363281 145.386719 " clip-rule="nonzero"/></clipPath><clipPath id="48feabeaff"><path d="M 0.0585938 0.386719 L 22.671875 0.386719 L 22.671875 23 L 0.0585938 23 Z M 0.0585938 0.386719 " clip-rule="nonzero"/></clipPath><clipPath id="f273512066"><path d="M 11.363281 0.386719 C 9.867188 0.386719 8.421875 0.675781 7.039062 1.25 C 5.652344 1.820312 4.429688 2.640625 3.371094 3.699219 C 2.308594 4.757812 1.492188 5.980469 0.917969 7.367188 C 0.347656 8.753906 0.0585938 10.195312 0.0585938 11.695312 C 0.0585938 13.191406 0.347656 14.636719 0.917969 16.019531 C 1.492188 17.40625 2.308594 18.628906 3.371094 19.6875 C 4.429688 20.746094 5.652344 21.566406 7.039062 22.140625 C 8.421875 22.710938 9.867188 23 11.363281 23 C 12.863281 23 14.304688 22.710938 15.691406 22.140625 C 17.078125 21.566406 18.300781 20.746094 19.359375 19.6875 C 20.417969 18.628906 21.234375 17.40625 21.808594 16.019531 C 22.382812 14.636719 22.671875 13.191406 22.671875 11.695312 C 22.671875 10.195312 22.382812 8.753906 21.808594 7.367188 C 21.234375 5.980469 20.417969 4.757812 19.359375 3.699219 C 18.300781 2.640625 17.078125 1.820312 15.691406 1.25 C 14.304688 0.675781 12.863281 0.386719 11.363281 0.386719 Z M 11.363281 0.386719 " clip-rule="nonzero"/></clipPath><clipPath id="e56532a55b"><rect x="0" width="23" y="0" height="23"/></clipPath></defs><g fill="#ffffff" fill-opacity="1"><g transform="translate(36.597596, 206.300523)"><g><path d="M 24.171875 -24.296875 L 13.40625 0 L 10.859375 0 L 0.109375 -24.296875 L 2.875 -24.296875 L 12.1875 -3.1875 L 21.5625 -24.296875 Z M 24.171875 -24.296875 "/></g></g></g><g fill="#ffffff" fill-opacity="1"><g transform="translate(76.112979, 206.300523)"><g><path d="M 3.953125 -24.296875 L 6.53125 -24.296875 L 6.53125 0 L 3.953125 0 Z M 3.953125 -24.296875 "/></g></g></g><g fill="#ffffff" fill-opacity="1"><g transform="translate(101.878205, 206.300523)"><g><path d="M 21.484375 -2.21875 L 21.484375 0 L 1.5625 0 L 1.5625 -1.765625 L 17.671875 -22.078125 L 1.8125 -22.078125 L 1.8125 -24.296875 L 21.078125 -24.296875 L 21.078125 -22.53125 L 5 -2.21875 Z M 21.484375 -2.21875 "/></g></g></g><g fill="#ffffff" fill-opacity="1"><g transform="translate(139.761625, 206.300523)"><g><path d="M 13.75 0.203125 C 10.601562 0.203125 8.148438 -0.695312 6.390625 -2.5 C 4.628906 -4.300781 3.75 -6.925781 3.75 -10.375 L 3.75 -24.296875 L 6.3125 -24.296875 L 6.3125 -10.484375 C 6.3125 -7.660156 6.945312 -5.550781 8.21875 -4.15625 C 9.5 -2.769531 11.34375 -2.078125 13.75 -2.078125 C 16.175781 -2.078125 18.023438 -2.769531 19.296875 -4.15625 C 20.578125 -5.550781 21.21875 -7.660156 21.21875 -10.484375 L 21.21875 -24.296875 L 23.71875 -24.296875 L 23.71875 -10.375 C 23.71875 -6.925781 22.84375 -4.300781 21.09375 -2.5 C 19.34375 -0.695312 16.894531 0.203125 13.75 0.203125 Z M 13.75 0.203125 "/></g></g></g><g fill="#ffffff" fill-opacity="1"><g transform="translate(182.540942, 206.300523)"><g><path d="M 19.203125 -6.5 L 5.65625 -6.5 L 2.75 0 L 0.0625 0 L 11.171875 -24.296875 L 13.71875 -24.296875 L 24.828125 0 L 22.109375 0 Z M 18.265625 -8.578125 L 12.421875 -21.625 L 6.59375 -8.578125 Z M 18.265625 -8.578125 "/></g></g></g><g fill="#ffffff" fill-opacity="1"><g transform="translate(222.716053, 206.300523)"><g><path d="M 3.953125 -24.296875 L 6.53125 -24.296875 L 6.53125 -2.21875 L 20.140625 -2.21875 L 20.140625 0 L 3.953125 0 Z M 3.953125 -24.296875 "/></g></g></g><g fill="#ffffff" fill-opacity="1"><g transform="translate(39.698762, 242.700248)"><g><path d="M 5.015625 -12.59375 C 6.640625 -12.59375 7.828125 -12.273438 8.578125 -11.640625 C 9.328125 -11.003906 9.703125 -10.097656 9.703125 -8.921875 C 9.703125 -8.378906 9.613281 -7.867188 9.4375 -7.390625 C 9.257812 -6.910156 8.972656 -6.488281 8.578125 -6.125 C 8.191406 -5.757812 7.679688 -5.472656 7.046875 -5.265625 C 6.410156 -5.054688 5.632812 -4.953125 4.71875 -4.953125 L 3.1875 -4.953125 L 3.1875 0 L 1.71875 0 L 1.71875 -12.59375 Z M 4.875 -11.34375 L 3.1875 -11.34375 L 3.1875 -6.203125 L 4.5625 -6.203125 C 5.363281 -6.203125 6.03125 -6.289062 6.5625 -6.46875 C 7.101562 -6.644531 7.507812 -6.925781 7.78125 -7.3125 C 8.050781 -7.695312 8.1875 -8.210938 8.1875 -8.859375 C 8.1875 -9.691406 7.914062 -10.3125 7.375 -10.71875 C 6.84375 -11.132812 6.007812 -11.34375 4.875 -11.34375 Z M 4.875 -11.34375 "/></g></g></g><g fill="#ffffff" fill-opacity="1"><g transform="translate(55.074505, 242.700248)"><g><path d="M 8.734375 0 L 1.71875 0 L 1.71875 -12.59375 L 8.734375 -12.59375 L 8.734375 -11.296875 L 3.1875 -11.296875 L 3.1875 -7.234375 L 8.421875 -7.234375 L 8.421875 -5.953125 L 3.1875 -5.953125 L 3.1875 -1.296875 L 8.734375 -1.296875 Z M 8.734375 0 "/></g></g></g><g fill="#ffffff" fill-opacity="1"><g transform="translate(69.640749, 242.700248)"><g><path d="M 5.125 -12.59375 C 6.15625 -12.59375 7.007812 -12.460938 7.6875 -12.203125 C 8.363281 -11.953125 8.867188 -11.566406 9.203125 -11.046875 C 9.535156 -10.523438 9.703125 -9.859375 9.703125 -9.046875 C 9.703125 -8.378906 9.578125 -7.820312 9.328125 -7.375 C 9.085938 -6.925781 8.769531 -6.566406 8.375 -6.296875 C 7.988281 -6.023438 7.578125 -5.8125 7.140625 -5.65625 L 10.59375 0 L 8.890625 0 L 5.8125 -5.25 L 3.1875 -5.25 L 3.1875 0 L 1.71875 0 L 1.71875 -12.59375 Z M 5.03125 -11.328125 L 3.1875 -11.328125 L 3.1875 -6.5 L 5.1875 -6.5 C 6.21875 -6.5 6.972656 -6.707031 7.453125 -7.125 C 7.941406 -7.539062 8.1875 -8.15625 8.1875 -8.96875 C 8.1875 -9.832031 7.925781 -10.441406 7.40625 -10.796875 C 6.894531 -11.148438 6.101562 -11.328125 5.03125 -11.328125 Z M 5.03125 -11.328125 "/></g></g></g><g fill="#ffffff" fill-opacity="1"><g transform="translate(85.292066, 242.700248)"><g><path d="M 8.828125 -3.34375 C 8.828125 -2.601562 8.640625 -1.96875 8.265625 -1.4375 C 7.898438 -0.914062 7.382812 -0.515625 6.71875 -0.234375 C 6.050781 0.0351562 5.265625 0.171875 4.359375 0.171875 C 3.890625 0.171875 3.441406 0.144531 3.015625 0.09375 C 2.585938 0.0507812 2.195312 -0.0078125 1.84375 -0.09375 C 1.488281 -0.175781 1.175781 -0.28125 0.90625 -0.40625 L 0.90625 -1.8125 C 1.332031 -1.632812 1.851562 -1.46875 2.46875 -1.3125 C 3.09375 -1.164062 3.742188 -1.09375 4.421875 -1.09375 C 5.054688 -1.09375 5.59375 -1.175781 6.03125 -1.34375 C 6.46875 -1.519531 6.796875 -1.765625 7.015625 -2.078125 C 7.242188 -2.398438 7.359375 -2.785156 7.359375 -3.234375 C 7.359375 -3.660156 7.265625 -4.019531 7.078125 -4.3125 C 6.890625 -4.601562 6.578125 -4.867188 6.140625 -5.109375 C 5.703125 -5.347656 5.101562 -5.597656 4.34375 -5.859375 C 3.8125 -6.054688 3.335938 -6.265625 2.921875 -6.484375 C 2.515625 -6.710938 2.171875 -6.96875 1.890625 -7.25 C 1.617188 -7.539062 1.410156 -7.875 1.265625 -8.25 C 1.128906 -8.632812 1.0625 -9.070312 1.0625 -9.5625 C 1.0625 -10.226562 1.234375 -10.800781 1.578125 -11.28125 C 1.921875 -11.757812 2.394531 -12.128906 3 -12.390625 C 3.601562 -12.648438 4.300781 -12.78125 5.09375 -12.78125 C 5.757812 -12.78125 6.378906 -12.710938 6.953125 -12.578125 C 7.523438 -12.453125 8.050781 -12.285156 8.53125 -12.078125 L 8.078125 -10.8125 C 7.617188 -11.007812 7.132812 -11.171875 6.625 -11.296875 C 6.113281 -11.421875 5.59375 -11.484375 5.0625 -11.484375 C 4.519531 -11.484375 4.0625 -11.40625 3.6875 -11.25 C 3.320312 -11.09375 3.039062 -10.867188 2.84375 -10.578125 C 2.644531 -10.285156 2.546875 -9.941406 2.546875 -9.546875 C 2.546875 -9.109375 2.640625 -8.742188 2.828125 -8.453125 C 3.015625 -8.160156 3.3125 -7.898438 3.71875 -7.671875 C 4.132812 -7.441406 4.679688 -7.203125 5.359375 -6.953125 C 6.097656 -6.691406 6.722656 -6.410156 7.234375 -6.109375 C 7.753906 -5.804688 8.148438 -5.4375 8.421875 -5 C 8.691406 -4.5625 8.828125 -4.007812 8.828125 -3.34375 Z M 8.828125 -3.34375 "/></g></g></g><g fill="#ffffff" fill-opacity="1"><g transform="translate(99.729141, 242.700248)"><g><path d="M 1.71875 0 L 1.71875 -12.59375 L 3.1875 -12.59375 L 3.1875 0 Z M 1.71875 0 "/></g></g></g><g fill="#ffffff" fill-opacity="1"><g transform="translate(109.421176, 242.700248)"><g><path d="M 9.625 0 L 8.078125 -4 L 3.015625 -4 L 1.484375 0 L 0 0 L 4.921875 -12.640625 L 6.25 -12.640625 L 11.140625 0 Z M 7.625 -5.296875 L 6.15625 -9.265625 C 6.125 -9.367188 6.066406 -9.535156 5.984375 -9.765625 C 5.910156 -10.003906 5.832031 -10.25 5.75 -10.5 C 5.675781 -10.757812 5.613281 -10.96875 5.5625 -11.125 C 5.5 -10.882812 5.429688 -10.644531 5.359375 -10.40625 C 5.296875 -10.175781 5.234375 -9.960938 5.171875 -9.765625 C 5.109375 -9.566406 5.054688 -9.398438 5.015625 -9.265625 L 3.515625 -5.296875 Z M 7.625 -5.296875 "/></g></g></g><g fill="#ffffff" fill-opacity="1"><g transform="translate(125.33946, 242.700248)"><g><path d="M 11.5625 0 L 9.875 0 L 3.015625 -10.578125 L 2.953125 -10.578125 C 2.960938 -10.296875 2.976562 -9.972656 3 -9.609375 C 3.03125 -9.253906 3.050781 -8.875 3.0625 -8.46875 C 3.070312 -8.0625 3.078125 -7.648438 3.078125 -7.234375 L 3.078125 0 L 1.71875 0 L 1.71875 -12.59375 L 3.40625 -12.59375 L 10.234375 -2.046875 L 10.296875 -2.046875 C 10.285156 -2.242188 10.269531 -2.53125 10.25 -2.90625 C 10.238281 -3.28125 10.222656 -3.679688 10.203125 -4.109375 C 10.191406 -4.535156 10.1875 -4.929688 10.1875 -5.296875 L 10.1875 -12.59375 L 11.5625 -12.59375 Z M 11.5625 0 "/></g></g></g><g fill="#ffffff" fill-opacity="1"><g transform="translate(143.384823, 242.700248)"><g><path d="M 9.625 0 L 8.078125 -4 L 3.015625 -4 L 1.484375 0 L 0 0 L 4.921875 -12.640625 L 6.25 -12.640625 L 11.140625 0 Z M 7.625 -5.296875 L 6.15625 -9.265625 C 6.125 -9.367188 6.066406 -9.535156 5.984375 -9.765625 C 5.910156 -10.003906 5.832031 -10.25 5.75 -10.5 C 5.675781 -10.757812 5.613281 -10.96875 5.5625 -11.125 C 5.5 -10.882812 5.429688 -10.644531 5.359375 -10.40625 C 5.296875 -10.175781 5.234375 -9.960938 5.171875 -9.765625 C 5.109375 -9.566406 5.054688 -9.398438 5.015625 -9.265625 L 3.515625 -5.296875 Z M 7.625 -5.296875 "/></g></g></g><g fill="#ffffff" fill-opacity="1"><g transform="translate(159.303107, 242.700248)"><g><path d="M 8.828125 -3.34375 C 8.828125 -2.601562 8.640625 -1.96875 8.265625 -1.4375 C 7.898438 -0.914062 7.382812 -0.515625 6.71875 -0.234375 C 6.050781 0.0351562 5.265625 0.171875 4.359375 0.171875 C 3.890625 0.171875 3.441406 0.144531 3.015625 0.09375 C 2.585938 0.0507812 2.195312 -0.0078125 1.84375 -0.09375 C 1.488281 -0.175781 1.175781 -0.28125 0.90625 -0.40625 L 0.90625 -1.8125 C 1.332031 -1.632812 1.851562 -1.46875 2.46875 -1.3125 C 3.09375 -1.164062 3.742188 -1.09375 4.421875 -1.09375 C 5.054688 -1.09375 5.59375 -1.175781 6.03125 -1.34375 C 6.46875 -1.519531 6.796875 -1.765625 7.015625 -2.078125 C 7.242188 -2.398438 7.359375 -2.785156 7.359375 -3.234375 C 7.359375 -3.660156 7.265625 -4.019531 7.078125 -4.3125 C 6.890625 -4.601562 6.578125 -4.867188 6.140625 -5.109375 C 5.703125 -5.347656 5.101562 -5.597656 4.34375 -5.859375 C 3.8125 -6.054688 3.335938 -6.265625 2.921875 -6.484375 C 2.515625 -6.710938 2.171875 -6.96875 1.890625 -7.25 C 1.617188 -7.539062 1.410156 -7.875 1.265625 -8.25 C 1.128906 -8.632812 1.0625 -9.070312 1.0625 -9.5625 C 1.0625 -10.226562 1.234375 -10.800781 1.578125 -11.28125 C 1.921875 -11.757812 2.394531 -12.128906 3 -12.390625 C 3.601562 -12.648438 4.300781 -12.78125 5.09375 -12.78125 C 5.757812 -12.78125 6.378906 -12.710938 6.953125 -12.578125 C 7.523438 -12.453125 8.050781 -12.285156 8.53125 -12.078125 L 8.078125 -10.8125 C 7.617188 -11.007812 7.132812 -11.171875 6.625 -11.296875 C 6.113281 -11.421875 5.59375 -11.484375 5.0625 -11.484375 C 4.519531 -11.484375 4.0625 -11.40625 3.6875 -11.25 C 3.320312 -11.09375 3.039062 -10.867188 2.84375 -10.578125 C 2.644531 -10.285156 2.546875 -9.941406 2.546875 -9.546875 C 2.546875 -9.109375 2.640625 -8.742188 2.828125 -8.453125 C 3.015625 -8.160156 3.3125 -7.898438 3.71875 -7.671875 C 4.132812 -7.441406 4.679688 -7.203125 5.359375 -6.953125 C 6.097656 -6.691406 6.722656 -6.410156 7.234375 -6.109375 C 7.753906 -5.804688 8.148438 -5.4375 8.421875 -5 C 8.691406 -4.5625 8.828125 -4.007812 8.828125 -3.34375 Z M 8.828125 -3.34375 "/></g></g></g><g fill="#ffffff" fill-opacity="1"><g transform="translate(173.740183, 242.700248)"><g/></g></g><g fill="#ffffff" fill-opacity="1"><g transform="translate(183.08775, 242.700248)"><g><path d="M 5.609375 -6.8125 L 9.171875 -6.8125 L 9.171875 -5.640625 L 5.609375 -5.640625 L 5.609375 -1.984375 L 4.4375 -1.984375 L 4.4375 -5.640625 L 0.890625 -5.640625 L 0.890625 -6.8125 L 4.4375 -6.8125 L 4.4375 -10.46875 L 5.609375 -10.46875 Z M 5.609375 -6.8125 "/></g></g></g><g fill="#ffffff" fill-opacity="1"><g transform="translate(197.938187, 242.700248)"><g/></g></g><g fill="#ffffff" fill-opacity="1"><g transform="translate(207.285755, 242.700248)"><g><path d="M 5.59375 0 L 4.125 0 L 4.125 -11.296875 L 0.15625 -11.296875 L 0.15625 -12.59375 L 9.53125 -12.59375 L 9.53125 -11.296875 L 5.59375 -11.296875 Z M 5.59375 0 "/></g></g></g><g fill="#ffffff" fill-opacity="1"><g transform="translate(221.765883, 242.700248)"><g><path d="M 9.625 0 L 8.078125 -4 L 3.015625 -4 L 1.484375 0 L 0 0 L 4.921875 -12.640625 L 6.25 -12.640625 L 11.140625 0 Z M 7.625 -5.296875 L 6.15625 -9.265625 C 6.125 -9.367188 6.066406 -9.535156 5.984375 -9.765625 C 5.910156 -10.003906 5.832031 -10.25 5.75 -10.5 C 5.675781 -10.757812 5.613281 -10.96875 5.5625 -11.125 C 5.5 -10.882812 5.429688 -10.644531 5.359375 -10.40625 C 5.296875 -10.175781 5.234375 -9.960938 5.171875 -9.765625 C 5.109375 -9.566406 5.054688 -9.398438 5.015625 -9.265625 L 3.515625 -5.296875 Z M 7.625 -5.296875 "/></g></g></g><g fill="#ffffff" fill-opacity="1"><g transform="translate(237.684167, 242.700248)"><g><path d="M 5.015625 -12.59375 C 6.640625 -12.59375 7.828125 -12.273438 8.578125 -11.640625 C 9.328125 -11.003906 9.703125 -10.097656 9.703125 -8.921875 C 9.703125 -8.378906 9.613281 -7.867188 9.4375 -7.390625 C 9.257812 -6.910156 8.972656 -6.488281 8.578125 -6.125 C 8.191406 -5.757812 7.679688 -5.472656 7.046875 -5.265625 C 6.410156 -5.054688 5.632812 -4.953125 4.71875 -4.953125 L 3.1875 -4.953125 L 3.1875 0 L 1.71875 0 L 1.71875 -12.59375 Z M 4.875 -11.34375 L 3.1875 -11.34375 L 3.1875 -6.203125 L 4.5625 -6.203125 C 5.363281 -6.203125 6.03125 -6.289062 6.5625 -6.46875 C 7.101562 -6.644531 7.507812 -6.925781 7.78125 -7.3125 C 8.050781 -7.695312 8.1875 -8.210938 8.1875 -8.859375 C 8.1875 -9.691406 7.914062 -10.3125 7.375 -10.71875 C 6.84375 -11.132812 6.007812 -11.34375 4.875 -11.34375 Z M 4.875 -11.34375 "/></g></g></g><g fill="#ffffff" fill-opacity="1"><g transform="translate(253.059921, 242.700248)"><g><path d="M 1.71875 0 L 1.71875 -12.59375 L 3.1875 -12.59375 L 3.1875 0 Z M 1.71875 0 "/></g></g></g><g fill="#ffffff" fill-opacity="1"><g transform="translate(262.751945, 242.700248)"><g><path d="M 9.421875 0 L 0.671875 0 L 0.671875 -1.109375 L 7.453125 -11.28125 L 0.90625 -11.28125 L 0.90625 -12.59375 L 9.234375 -12.59375 L 9.234375 -11.484375 L 2.453125 -1.3125 L 9.421875 -1.3125 Z M 9.421875 0 "/></g></g></g><g clip-path="url(#cf4495dd96)"><g clip-path="url(#8ecbfee053)"><g transform="matrix(1, 0, 0, 1, 39, 145)"><g clip-path="url(#1fd579dee8)"><g clip-path="url(#a28cf7bc86)"><g clip-path="url(#5d6ad8823e)"><path fill="#020301" d="M 0.699219 0.386719 L 23.308594 0.386719 L 23.308594 23 L 0.699219 23 Z M 0.699219 0.386719 " fill-opacity="1" fill-rule="nonzero"/></g></g></g></g></g></g><g clip-path="url(#0c4635fee6)"><g clip-path="url(#db6b743fd9)"><g transform="matrix(1, 0, 0, 1, 75, 145)"><g clip-path="url(#3811b9576c)"><g clip-path="url(#af3a40ecdd)"><g clip-path="url(#b00605a93e)"><path fill="#a8a8a8" d="M 0.878906 0.386719 L 23.492188 0.386719 L 23.492188 23 L 0.878906 23 Z M 0.878906 0.386719 " fill-opacity="1" fill-rule="nonzero"/></g></g></g></g></g></g><g clip-path="url(#a121ba3029)"><g clip-path="url(#be2a4ec43e)"><g transform="matrix(1, 0, 0, 1, 112, 145)"><g clip-path="url(#e56532a55b)"><g clip-path="url(#48feabeaff)"><g clip-path="url(#f273512066)"><path fill="#f8c100" d="M 0.0585938 0.386719 L 22.671875 0.386719 L 22.671875 23 L 0.0585938 23 Z M 0.0585938 0.386719 " fill-opacity="1" fill-rule="nonzero"/></g></g></g></g></g></g><path stroke-linecap="butt" transform="matrix(0.75, 0, 0, 0.75, 139.68726, 154.818535)" fill="none" stroke-linejoin="miter" d="M 0.00031983 2.502371 L 241.187836 2.502371 " stroke="#ffffff" stroke-width="5" stroke-opacity="1" stroke-miterlimit="4"/><path stroke-linecap="butt" transform="matrix(0.75, 0, 0, 0.75, 20.826959, 262.37093)" fill="none" stroke-linejoin="miter" d="M 0.00155428 2.500219 L 399.668247 2.500219 " stroke="#ffffff" stroke-width="5" stroke-opacity="1" stroke-miterlimit="4"/><path stroke-linecap="butt" transform="matrix(0, -0.75, 0.75, 0, 316.822894, 264.241214)" fill="none" stroke-linejoin="miter" d="M -0.0012982 2.501766 L 143.404961 2.501766 " stroke="#ffffff" stroke-width="5" stroke-opacity="1" stroke-miterlimit="4"/><path stroke-linecap="butt" transform="matrix(0, -0.75, 0.75, 0, 20.822226, 266.116214)" fill="none" stroke-linejoin="miter" d="M -0.00129837 2.497449 L 143.404961 2.497449 " stroke="#ffffff" stroke-width="5" stroke-opacity="1" stroke-miterlimit="4"/><path stroke-linecap="butt" transform="matrix(0.75, 0, 0, 0.75, 20.826959, 156.693535)" fill="none" stroke-linejoin="miter" d="M 0.00155428 2.502371 L 21.027597 2.502371 " stroke="#ffffff" stroke-width="5" stroke-opacity="1" stroke-miterlimit="4"/></svg>