<?xml version="1.0" encoding="UTF-8"?>
<svg version="1.1" xmlns="http://www.w3.org/2000/svg" width="192" height="192">
<path d="M0 0 C63.36 0 126.72 0 192 0 C192 63.36 192 126.72 192 192 C128.64 192 65.28 192 0 192 C0 128.64 0 65.28 0 0 Z " fill="#FCFCFB" transform="translate(0,0)"/>
<path d="M0 0 C2.97 0 5.94 0 9 0 C13.75952655 9.17727859 18.11464393 18.42585064 22.06176758 27.98168945 C25.14879302 35.43472679 28.54436012 42.71128384 32 50 C32.98485072 52.10151226 33.96458765 54.2054342 34.9375 56.3125 C35.33839844 57.17488281 35.73929688 58.03726563 36.15234375 58.92578125 C37 61 37 61 37 63 C37.66 63 38.32 63 39 63 C39.37253906 61.78183594 39.74507812 60.56367187 40.12890625 59.30859375 C42.23607307 52.99939432 45.09651998 47.06806836 47.9375 41.0625 C48.50991242 39.84303319 49.08176204 38.62330205 49.65307617 37.40332031 C50.53679315 35.5165363 51.42091274 33.62995133 52.30690002 31.74423218 C55.50901849 24.92828731 58.66178581 18.08982045 61.8125 11.25 C62.81896703 9.06768832 63.82547322 6.8853947 64.83203125 4.703125 C65.55473612 3.13543908 66.27741286 1.56774019 67 0 C69.97 0 72.94 0 76 0 C70.57389126 12.63062685 65.03333125 25.19781962 59.27294922 37.6796875 C53.72176157 49.72987451 48.36272214 61.86502275 43 74 C39.7 74 36.4 74 33 74 C32.35933594 72.51371094 31.71867187 71.02742188 31.05859375 69.49609375 C30.18500807 67.47651395 29.31130368 65.45698549 28.4375 63.4375 C28.01919922 62.46619141 27.60089844 61.49488281 27.16992188 60.49414062 C24.47769435 54.27975078 21.68156164 48.12059938 18.80477905 41.98994446 C15.37027775 34.67045765 12.00012636 27.32176941 8.63598633 19.96972656 C7.54096946 17.57797264 6.44331673 15.18743816 5.34570312 12.796875 C4.64827603 11.27351141 3.95100417 9.75007674 3.25390625 8.2265625 C2.92588516 7.51319733 2.59786407 6.79983215 2.25990295 6.06484985 C0 1.11422952 0 1.11422952 0 0 Z " fill="#090A09" transform="translate(58,67)"/>
<path d="M0 0 C5.94 0 11.88 0 18 0 C18 0.99 18 1.98 18 3 C13.05 3 8.1 3 3 3 C3 41.61 3 80.22 3 120 C44.58 120 86.16 120 129 120 C129 81.39 129 42.78 129 3 C124.05 3 119.1 3 114 3 C114 2.01 114 1.02 114 0 C119.94 0 125.88 0 132 0 C132 40.59 132 81.18 132 123 C88.44 123 44.88 123 0 123 C0 82.41 0 41.82 0 0 Z " fill="#020302" transform="translate(30,39)"/>
<path d="M0 0 C3.07469523 1.70251719 5.40613254 3.81226508 7 7 C7.22704987 12.02471232 6.73487969 15.1601375 3.375 19 C-0.38814463 21.23001163 -2.62502261 22.0781246 -7 22 C-10.74669241 20.02061533 -12.64677369 18.52983947 -15 15 C-15.73965025 10.40728797 -15.60961194 6.97537911 -13.125 3 C-9.19649309 -0.69741827 -5.2073264 -0.80381548 0 0 Z " fill="#070807" transform="translate(68,30)"/>
<path d="M0 0 C3.23324249 1.30705547 4.53035639 2.25283971 6.375 5.1875 C7.23157146 9.04207158 7.14521407 12.21315881 6 16 C4.0625 19 4.0625 19 1 21 C-4.04772843 22.0112034 -7.7182358 21.8370705 -12.0625 19 C-14.46123213 15.28583411 -15.31080679 12.41172973 -15 8 C-12.0814462 0.11990475 -7.74043062 -0.8706284 0 0 Z " fill="#AAAAA9" transform="translate(100,30)"/>
<path d="M0 0 C3.40367358 0.50485111 5.15778544 1.85009633 7.44921875 4.36328125 C9.17791654 7.82067682 8.9388877 11.58303693 8.44921875 15.36328125 C6.65528207 18.23357994 5.46658599 19.85459763 2.44921875 21.36328125 C-1.54341756 21.92154367 -5.78341122 22.513664 -9.28515625 20.234375 C-12.21518908 16.9337792 -13.55078125 13.73086658 -13.55078125 9.36328125 C-10.57752722 1.78148347 -7.94961631 -0.22050031 0 0 Z " fill="#F6BF09" transform="translate(130.55078125,29.63671875)"/>
</svg>
